<svg width="121" height="120" viewBox="0 0 121 120" fill="none" xmlns="http://www.w3.org/2000/svg">
<circle cx="60.5" cy="60" r="60" fill="#212121"/>
<path d="M81.1666 76.6667L64.5 60L47.8333 76.6667" stroke="white" stroke-width="2" stroke-linecap="round" stroke-linejoin="round"/>
<path d="M64.5 60V97.5" stroke="white" stroke-width="2" stroke-linecap="round" stroke-linejoin="round"/>
<path d="M99.4583 86.6249C103.522 84.4094 106.733 80.9036 108.583 76.6608C110.433 72.4181 110.818 67.68 109.676 63.1944C108.534 58.7088 105.931 54.7312 102.278 51.8893C98.6243 49.0473 94.1286 47.5029 89.5 47.4999H84.25C82.9888 42.6217 80.6381 38.093 77.3747 34.254C74.1113 30.4151 70.0201 27.3659 65.4087 25.3358C60.7973 23.3056 55.7856 22.3472 50.7504 22.5327C45.7153 22.7183 40.7877 24.0428 36.3382 26.4068C31.8886 28.7709 28.0329 32.1128 25.0609 36.1815C22.0888 40.2501 20.0778 44.9396 19.179 49.8974C18.2802 54.8551 18.5171 59.9521 19.8717 64.8051C21.2263 69.6582 23.6635 74.141 27 77.9166" stroke="white" stroke-width="2" stroke-linecap="round" stroke-linejoin="round"/>
<path d="M81.1666 76.6667L64.5 60L47.8333 76.6667" stroke="white" stroke-width="2" stroke-linecap="round" stroke-linejoin="round"/>
</svg>
