<svg width="121" height="120" viewBox="0 0 121 120" fill="none" xmlns="http://www.w3.org/2000/svg">
<circle cx="60.5" cy="60" r="60" fill="#212121"/>
<path d="M33.7917 82.2917H29.8333C27.7337 82.2917 25.7201 81.4576 24.2354 79.9729C22.7507 78.4883 21.9167 76.4746 21.9167 74.375V34.7917C21.9167 32.692 22.7507 30.6784 24.2354 29.1937C25.7201 27.7091 27.7337 26.875 29.8333 26.875H93.1667C95.2663 26.875 97.2799 27.7091 98.7646 29.1937C100.249 30.6784 101.083 32.692 101.083 34.7917V74.375C101.083 76.4746 100.249 78.4883 98.7646 79.9729C97.2799 81.4576 95.2663 82.2917 93.1667 82.2917H89.2083" stroke="white" stroke-width="2" stroke-linecap="round" stroke-linejoin="round"/>
<path d="M61.5 74.375L81.2917 98.125H41.7083L61.5 74.375Z" stroke="white" stroke-width="2" stroke-linecap="round" stroke-linejoin="round"/>
</svg>
